<?xml version="1.0" encoding="utf-8"?>
<!-- Generator: Adobe Illustrator 15.0.2, SVG Export Plug-In . SVG Version: 6.00 Build 0)  -->
<svg version="1.2" baseProfile="tiny" id="Layer_1" xmlns="http://www.w3.org/2000/svg" xmlns:xlink="http://www.w3.org/1999/xlink"
	 x="0px" y="0px" width="468px" height="55px" viewBox="0 0 468 55" overflow="inherit" xml:space="preserve">
<g>
	<path d="M54,43.1c1,2.6,0,0,0,1.2c0,0,0,1.2-2,1.2l-2.4,1.2c-8,0.8-9.2,0.4-9.2,0.4s-1.2-0.4-2-1.2v-2l2-3.2l1.8-0.4L42,37.9
		c-0.8-12.7-0.8-15.5-0.8-15.5L36,27.6l-3.2,2.8c-1.9,1.7-3.2,0.4-3.2,0.4c-1.2-1.2-2-2-3.6-2.8c-1.4-0.7-5.7-2.9-6.9-3.5l0.1,0.5
		l-0.4,10.8l0.2,3.4c1.7,0,3.4,0.3,4.6,1c3.2,2-0.8,0.8,0,2.8c1,2.6,0,0,0,1.2c0,0,0,1.2-2,1.2l-2.4,1.2c-8,0.8-9.2,0.4-9.2,0.4
		s-1.2-0.4-2-1.2v-2l2-3.2l1.7-0.4l-0.1-2.4c-1-14.8-0.8-16-0.8-16c-0.1-1.2,0-2.8,0-4c0-0.3,0.1-0.5,0.2-0.8
		c-0.2-1.6,0.1-3.5,1.4-5.9l6.8,3.6l5.2,4.4l6,2.8c2,0,3.6-2,3.6-2c1.6-2,2-1.2,3.2-2.8c0,0,1.2-1.6,4-3.6c4.4,0,4.4,1.2,4.4,1.2
		c0,0.4-0.2,0.9-0.4,1.6l0.8,0.3l2.8,4l0.8,4.4l-0.4,10.8l0.2,3.4c1.7,0,3.4,0.3,4.6,1C57.2,42.3,53.2,41.1,54,43.1z"/>
	<path d="M73.6,43c1.1,2.7,0,0,0,1.2c0,0,0,1.2-2,1.2l-2.4,1.2c-8.2,0.8-9.4,0.4-9.4,0.4s-1.2-0.4-2-1.2v-2l2-3.3l1.8-0.4l-0.2-3.4
		c-0.8-14.1-0.8-17.5-0.8-17.5c-1.5,0.1-2.8,0.1-3.3-0.1c0,0-1.2-0.4-2.1-1.2v-2.1l2.1-3.2l3.7-0.8c0.3-0.1,0.9-0.2,0.9-0.2
		s0.2-0.2,0.4-0.3l0.5,0.2c2.3-0.3,6.2-0.6,8.5,0.7c3.2,2.1-0.8,0.8,0,2.9c1,2.6,0,0,0,1.2c0,0,0,1.2-2.1,1.2l-0.7,0.3l0.7,4.4
		l-0.4,12.3l0.2,4.6c1.7,0,3.5,0.3,4.7,1C76.9,42.2,72.8,41,73.6,43z"/>
	<path d="M105.3,38.1l-0.4,0.8c-1.1,2.1-2.6,4.8-3.6,5.9c-1.2,1.4-2.4,1.8-3.9,2.2c-0.5,0.1-1.3,0.2-2.6,0.2c-1.4,0-3-0.1-4.2-0.1
		c-0.7,0-1.2,0-1.5,0c-1.2,0-7.3-3.1-8-3.5l-3.5-2.7c-0.1-0.2-2.7-4.8-2.7-7.4c0-2.2,0.5-3.7,0.9-4.9c0.1-0.3,0.2-0.5,0.3-0.8
		c0.2-0.8,0.3-1.2,0.4-1.9c0.1-0.4,0.1-0.9,0.3-1.5c0.4-1.7,2.3-6.5,3.9-7.9c1.5-1.3,9.5-5,9.8-5.2l0.1,0c0.2,0,4.2,0,5.4,0.4
		c1.1,0.4,3.2,2.1,4.5,3l0.1,0.1c0.5,0.4,1,0.9,1.6,1.6c0.4,0.4,0.7,0.9,1,1.2l0.4,0.5l-0.1,0c0.1,0.3,0.3,0.5,0.3,0.7
		c0.3,1.3,0.3,3,0.3,3.1v0.3l-2.4,0.3l-2.3-0.3l-2.8-1.7l0,0l-0.2-0.2l0,0c-1.1-0.9-2.2-1.7-2.4-1.9h-5c-0.5,0.5-3,3-3.6,4.1
		c-0.8,1.4-1.9,4-2.2,5.9c-0.3,1.9,0.9,5.7,1.1,6.2l3.7,3.8c0,0.1,1.1,1.7,3.6,2.1c0.7,0.1,1.4,0.2,2.1,0.2c1.5,0,2.9-0.3,3.9-0.6
		l1.5-1.7l0.4-2.4l0.1-0.1c0,0,1-0.6,2.3-0.6c0.1,0,0.2,0,0.3,0c0,0,0,0,0-0.1c0-0.1-0.1-0.2,0-0.3l0.1-0.1h0.1c0.1,0,0.2,0,0.9,0.6
		c1.2,1,2.2,1.9,2.1,3L105.3,38.1z"/>
	<path d="M143.1,43c1.1,2.7,0,0,0,1.2c0,0,0,1.2-2,1.2l-2.4,1.2c-8.2,0.8-9.4,0.4-9.4,0.4s-1.2-0.4-2-1.2v-2l2-3.3l1.8-0.4l-0.2-3.4
		c-0.1-2.2-0.3-5.1-0.3-5.1l-1.7,0.8c-7.5,0.6-10.1,0.5-10.1,0.5l-0.1,1.6l0.2,4.6c1.7,0,3.5,0.3,4.7,1c3.3,2-0.8,0.8,0,2.8
		c1.1,2.7,0,0,0,1.2c0,0,0,1.2-2,1.2l-2.4,1.2c-8.2,0.8-9.4,0.4-9.4,0.4s-1.2-0.4-2-1.2v-2l2-3.3l1.8-0.4l-0.2-3.4
		c-0.8-14.1-0.8-17.5-0.8-17.5c-1.5,0.1-2.8,0.1-3.3-0.1c0,0-1.2-0.4-2.1-1.2v-2.1l2.1-3.2l3.7-0.8c0.3-0.1,0.9-0.2,0.9-0.2
		s0.2-0.2,0.4-0.3l0.5,0.2c2.3-0.3,6.2-0.6,8.5,0.7c3.2,2.1-0.8,0.8,0,2.9c1,2.6,0,0,0,1.2c0,0,0,1.2-2.1,1.2l-0.7,0.3l0.7,4.4
		l-0.1,3.9l3.3-0.6c4.2-0.8,8-0.5,8-0.5c-0.1-2.4-0.2-4.6-0.2-5.7c-1.5,0.1-2.9,0.1-3.3-0.1c0,0-1.2-0.4-2.1-1.2v-2.1l2.1-3.2
		l3.7-0.8c0.3-0.1,0.9-0.2,0.9-0.2s0.2-0.2,0.3-0.3l0.5,0.2c2.3-0.3,6.3-0.6,8.5,0.7c3.3,2.1-0.8,0.8,0,2.9c1,2.6,0,0,0,1.2
		c0,0,0,1.2-2.1,1.2l-0.7,0.3l0.7,4.4l-0.4,12.3l0.2,4.6c1.7,0,3.4,0.3,4.6,1C146.4,42.2,142.3,41,143.1,43z"/>
	<path d="M179.8,43c1,2.7,0,0,0,1.2c0,0,0,1.2-2.1,1.2l-2.4,1.2c-8.1,0.8-9.4,0.4-9.4,0.4s-1.2-0.4-2.1-1.2v-2l2.1-3.3l2.5-0.5
		l-1.1-3.7l-1.5,0.5c-5.6,0.4-8.2,0.4-8.2,0.4l-0.6,2c1.3,0.1,2.5,0.4,3.4,1c3.3,2-0.8,0.8,0,2.8c1.1,2.7,0,0,0,1.2c0,0,0,1.2-2,1.2
		l-2.4,1.2c-8.1,0.8-9.4,0.4-9.4,0.4s-1.2-0.4-2.1-1.2v-2l2.1-3.3l2.8-0.6l0.6-2.2c4.4-15.1,5-16.3,5-16.3c0.2-0.6,0.5-1.4,0.8-2.2
		c-0.3,0-0.4-0.1-0.6-0.1c0,0-1.2-0.4-2-1.2v-2l2-3.3l3.7-0.8c6.9-1.5,10.2,0.4,10.2,0.4c3.3,2-0.8,0.8,0,2.8c1.1,2.7,0,0,0,1.2
		c0,0.4-0.2,0.6-0.5,0.8c0,0.1,0.1,0.1,0.1,0.2c0.4,1.2,1.1,2.8,1.4,4.1c0,0,0.6,1.2,5.1,16.3l0.4,1.4c1.5,0,3.1,0.3,4.2,1
		C183,42.2,179,41,179.8,43z M165.6,32l-2.9-7.3l-0.2-1.1l-0.2,1.1l-3.1,7.8l0.8-0.1C162.8,32,165.6,32,165.6,32z"/>
	<path d="M217.3,38.7c1,4.6-1.2,6.5-1.2,6.5c-1.3,1.1-1.4,0.7-1.6,0.2c0,0-0.3,0.8-0.7,1.3c-5.3,0-6.9,0-6.9,0c-1.7,0-6.6,0-9.9,0
		s-4.9,0.4-6.9,0.4s-3.7-0.4-5.8-0.4c0,0-2.1,0-2.9-1.7c-0.4-2.1-0.4-3.3-0.4-3.3s0-1.2,2.9-1.7c3.3,0,7.5-0.1,7.5-0.1l-0.1-1.9
		c-1-15.2-0.8-16.4-0.8-16.4c0-0.9,0-2.1,0-3.1c-0.1,0-0.3,0-0.4,0c-2.1,0-3.7-0.4-5.8-0.4c0,0-2.1,0-2.9-1.6
		c-0.4-2.1-0.4-3.3-0.4-3.3s0-1.2,2.9-1.7c23-0.4,25.4-0.4,25.4-0.4c0.8,0,1.6,0,2.2,0.1c0,0,0.2-0.2,0.4-0.3l2.1,0.2l3.1,1.7
		l0.5,2.4c1,4.7-1.2,6.6-1.2,6.6c-2.3,1.9-0.8-0.6-2.8-0.3c-2.7,0.4,0,0-1.2-0.1c0,0-1.2-0.1-1.1-1.4l-1-1.7c0-0.1,0-0.2,0-0.2
		c-1.3,0-2.7,0-3.4,0c-1.7,0-6.6,0-9.9,0c-0.1,0-0.2,0-0.3,0l1.5,2.3l0.6,3.4c2.2-0.4,6.4-0.8,8.8,0.7c3.3,2.1-0.8,0.8,0,2.9
		c1.1,2.7,0,0,0,1.2c0,0,0,1.2-2.1,1.2l-2.4,1.3c-2.1,0.2-4.4,0.4-4.4,0.4l-0.1,4.5l0.2,3.9c5-0.1,9.5-0.1,10.5-0.1
		c0.2,0,0.4,0,0.5,0c0-1.6,0-3.8,0.3-4.3c0,0,0.5-0.8,1.4-1.2l2,0.3l3.1,1.7L217.3,38.7z"/>
	<path d="M248.9,45.3c-1.2,1-1.3,0.8-1.5,0.4c0,0-0.3,0.6-0.5,1.2c-4.5,0-5.9,0-5.9,0c-1.4,0-5.5,0-8.2,0c-2.7,0-4.1,0.4-5.8,0.4
		s-3.1-0.4-4.8-0.4c0,0-1.7,0-2.4-1.6c-0.4-2.1-0.4-3.2-0.4-3.2s0-1.2,2.4-1.6c1.1,0,2.8-0.1,2.8-0.1l-0.2-3.2
		c-0.8-12.9-0.8-17.2-0.8-17.2c-1.3,0.1-2.5,0.1-2.9-0.1c0,0-1.2-0.4-2-1.2v-2l2-3.2l3.3-0.7c0,0,0.5-0.8,1.2-1.4l2,0.9
		c2.3-0.3,5.4-0.3,7.3,0.9c3.2,2-0.8,0.8,0,2.8c1.1,2.6,0,0,0,1.2c0,0,0,1.2-2,1.2l-1,0.5l0.6,3.6l-0.4,12.5l0.3,5.3
		c4.6-0.1,9.3-0.2,10.8-0.2c0-1.6,0-3.8,0.3-4.2c0,0,0.5-0.7,1.4-1.2l2,0.2l3.1,1.7l0.5,2.4C251.1,43.5,248.9,45.3,248.9,45.3z"/>
	<path d="M289.6,22.6l0.4-2.8c0-1.3-1.2-1.7-1.4-1.7c-0.4,0-4-0.4-5-0.4c-0.7,0-1,0.3-1.4,1.5c-0.3,0.8-0.1,2.6,0,3.5
		c0.6,0.5,2.7,2.5,5.3,4.1c1.2,0.8,2.6,1.3,3.9,1.8c2.2,0.8,4.2,1.6,5,3.2c1,2,0.3,4-0.3,5.5c-0.1,0.4-0.3,0.9-0.4,1.2
		c-0.4,1.7-1.7,4.2-3.8,5.9c-2.1,1.7-5.7,2.9-7.1,2.9c-0.6,0-2.1-0.1-3.6-0.2c-1.4-0.1-2.9-0.2-3.5-0.2c-1.5,0-4.8-2.6-6-4.2
		c-1.2-1.6-2.3-3.5-2.4-3.6l-0.1-0.1v-0.2c0-0.1,0-2.3,1.4-3.2c0.8-0.5,1.7-0.6,2.3-0.6c0.4,0,0.8,0,1.1,0.1c0.3,0,0.6,0,0.9,0
		c1.3,0,1.9,1,2.4,1.9c0.1,0.3,0.3,0.5,0.4,0.7c0.5,0.8,0.7,1.4,0.8,1.8c0.9,0.1,2.7,0.3,3.8,0.3c1.5,0,1.9,0,3-0.4
		c0.8-0.3,1.9-1.2,2.4-1.7c0.1-0.5,0.3-1.9,0.3-2.8c0-0.7-0.6-1.8-0.9-2.3c-1-0.4-5.9-2.3-6.9-2.7c-1.3-0.4-3.4-2.1-4.6-3.7
		c-1.2-1.5-2.3-2.7-2.3-2.7l-0.2-0.2v-3.6l2.5-4.2c0.4-0.5,2.6-2.9,3.8-3.3c1-0.3,3.6-0.9,6.4-0.9c0.7,0,1.4,0,2.1,0.1
		c0.3,0,0.5,0,0.6,0.1c0.2-0.1,0.4-0.1,0.5-0.1c1.3,0,3,0.8,5.4,2c2.3,1.2,2.7,2.5,3,3.9c0,0.1,0.1,0.3,0.1,0.5
		c0.3,1.4-0.1,2.5-0.5,3.5c-0.1,0.3-0.2,0.5-0.3,0.8c-0.4,1.2-0.8,2.5-2.1,3.8c-0.4,0.4-0.8,0.6-1.3,0.6c-0.5,0-1-0.3-1.5-0.5
		c-0.5-0.3-1-0.6-1.7-0.7c-0.8-0.2-1.3-0.5-1.4-1C288.6,23.4,289.2,22.9,289.6,22.6z"/>
	<path d="M329.8,17.7c0,0,0,1.1-0.9,5.8l-3.1,5.4c-2.5,2.5-3.5,2.9-3.5,2.9s-0.9,0.4-5.6,1.6l-3.9,0.2l0,1l0.2,4.6
		c1.7,0,3.4,0.3,4.6,1c3.2,2.1-0.8,0.8,0,2.8c1,2.7,0,0,0,1.2c0,0,0,1.2-2,1.2l-2.4,1.2c-8.1,0.8-9.3,0.4-9.3,0.4s-1.2-0.4-2.1-1.2
		v-2l2.1-3.2l1.8-0.4l-0.2-3.4c-0.9-14.1-0.8-17.5-0.8-17.5c-1.5,0.1-2.8,0.1-3.3-0.1c0,0-1.2-0.4-2-1.2v-2l2-3.2l3.7-0.8
		c0.3-0.1,0.9-0.2,0.9-0.2s0.2-0.2,0.3-0.3l0.5,0.2c1.1-0.1,2.6-0.3,4-0.3l0-0.1h6.9l7.5,0.4l2.8,1.8
		C329.8,16.6,329.8,17.7,329.8,17.7z M321.7,19.5c0,0-1.9-1.8-6.5-2.3l-2.7,1l0.7,4.1l-0.1,3c1.5-0.5,4.5-1.5,5.5-1.5
		c1.3,0,2.5,0,2.8-2.2C321.7,19.5,323.6,21.3,321.7,19.5z"/>
	<path d="M361.2,43c1,2.7,0,0,0,1.2c0,0,0,1.2-2.1,1.2l-2.4,1.2c-8.1,0.8-9.4,0.4-9.4,0.4s-1.2-0.4-2.1-1.2v-2l2.1-3.3l2.5-0.5
		l-1.1-3.7l-1.5,0.5c-5.6,0.4-8.2,0.4-8.2,0.4l-0.6,2c1.3,0.1,2.5,0.4,3.4,1c3.3,2-0.8,0.8,0,2.8c1.1,2.7,0,0,0,1.2c0,0,0,1.2-2,1.2
		l-2.4,1.2c-8.1,0.8-9.4,0.4-9.4,0.4s-1.2-0.4-2.1-1.2v-2l2.1-3.3l2.8-0.6l0.6-2.2c4.4-15.1,5-16.3,5-16.3c0.2-0.6,0.5-1.4,0.8-2.2
		c-0.3,0-0.4-0.1-0.6-0.1c0,0-1.2-0.4-2-1.2v-2l2-3.3l3.7-0.8c6.9-1.5,10.2,0.4,10.2,0.4c3.3,2-0.8,0.8,0,2.8c1.1,2.7,0,0,0,1.2
		c0,0.4-0.2,0.6-0.5,0.8c0,0.1,0.1,0.1,0.1,0.2c0.4,1.2,1.1,2.8,1.4,4.1c0,0,0.6,1.2,5.1,16.3l0.4,1.4c1.5,0,3.1,0.3,4.2,1
		C364.5,42.2,360.4,41,361.2,43z M347.1,32l-2.9-7.3l-0.2-1.1l-0.2,1.1l-3.1,7.8l0.8-0.1C344.2,32,347.1,32,347.1,32z"/>
	<path d="M394.6,42.7c0.1,0.3,0.1,0.4,0.2,0.6l0.1,0.2l0,0.2c0.1,0.3,0,0.2,0,0.1l-0.5,2.2c-0.1,0.3-0.4,1.3-2.1,1.3h-0.1
		c-1.5,0-3.7-0.4-3.8-0.4l-0.2,0l-0.1-0.1c-1.5,0.1-3.1,0.3-3.5,0c0,0-0.9-0.4-1.5-1.2v-2l0.6-1.4l-0.4-0.4l-7.5-6.7l0,0l0.2,3.9
		c1.7,0,3.4,0.3,4.6,1c3.2,2-0.8,0.8,0,2.8c1,2.6,0,0,0,1.2c0,0,0,1.2-2,1.2l-2.4,1.2c-8,0.8-9.2,0.4-9.2,0.4s-1.2-0.4-2-1.2v-2
		l2-3.2l1.8-0.4l-0.2-3.4c-0.8-13.9-0.8-17.2-0.8-17.2c-1.5,0.1-2.8,0.1-3.2-0.1c0,0-1.2-0.4-2-1.2v-2l2-3.2l3.6-0.8
		c0.3-0.1,0.9-0.2,0.9-0.2s0.2-0.2,0.4-0.3l0.5,0.2c1-0.1,2.5-0.3,4-0.3l0-0.1h6.8l7.4,0.4l2.8,1.8c1.8,3.2,1.8,4.3,1.8,4.3
		s0,1.1-0.9,5.7l-3.1,5.3c-2.5,2.5-3.4,2.8-3.4,2.8c-0.3,0.1-0.7,0.3-1.3,0.4c2.4,2.5,5.6,5.8,6.7,7c1.4-0.1,3,0.1,4,1
		C396.9,41.9,394,40.6,394.6,42.7z M378.1,17.1l-2.7,1l0.6,4l-0.1,3c1.4-0.5,4.5-1.5,5.4-1.5c1.2,0,2.4,0,2.8-2.1
		c0.3-2.2,2.2-0.4,0.3-2.2C384.5,19.4,382.7,17.6,378.1,17.1z"/>
	<path d="M432.5,42.6c1,2.6,0,0,0,1.2c0,0,0,1.2-2,1.2l-2.4,1.2c0,0-0.1,0-0.1,0c-0.2,0.4-0.7,0.9-1.9,0.9h-0.1
		c-1.5,0-3.7-0.4-3.9-0.4l-0.2,0c-1.4,0.1-2.7,0.1-3.1-0.1c0,0-1.2-0.4-2-1.2v-2l0.8-1.3l-0.5-0.5l-7.5-6.7l-0.6-0.9v0.1l0.2,4.6
		c1.7,0,3.4,0.3,4.6,1c3.2,2-0.8,0.8,0,2.8c1,2.6,0,0,0,1.2c0,0,0,1.2-2,1.2l-2.4,1.2c-8.1,0.8-9.2,0.4-9.2,0.4s-1.2-0.4-2-1.2v-2
		l2-3.2l1.8-0.4l-0.2-3.4c-0.8-14-0.8-17.3-0.8-17.3c-1.5,0.1-2.8,0.1-3.2,0c0,0-1.2-0.4-2-1.2v-2l2-3.2l3.6-0.8
		c0.3-0.1,0.9-0.2,0.9-0.2s0.2-0.2,0.4-0.3l0.4,0.2c2.3-0.4,6.2-0.7,8.4,0.7c3.2,2-0.8,0.8,0,2.8c1,2.6,0,0,0,1.2c0,0,0,1.2-2,1.2
		l-0.7,0.3l0.7,4.3l-0.1,1.5c1.5-1.7,3.3-3.7,4.8-5.4c0,0-0.3-0.2-0.4-0.4v-2l2-3.2l3.6-0.8c0.2,0,0.6-0.1,0.6-0.1l0.5-0.5l1.4,0.2
		c2.3-0.3,5.7-0.4,7.6,0.8c3.2,2-0.8,0.8,0,2.8c1.1,2.6,0,0,0,1.2c0,0,0,1.2-2,1.2l-2.4,1.2c-0.7,0.1-1.7,0.2-1.7,0.2l-3.6,4.1
		l-4.5,6c1.2,1.3,8.4,8.7,9.7,10c2.3-0.3,5.8-0.5,7.9,0.8C435.7,41.8,431.6,40.6,432.5,42.6z"/>
	<path d="M454.2,22.6l0.4-2.8c0-1.3-1.2-1.7-1.4-1.7c-0.4,0-4-0.4-5-0.4c-0.7,0-1,0.3-1.4,1.5c-0.3,0.8-0.1,2.6,0,3.5
		c0.6,0.5,2.7,2.5,5.3,4.1c1.2,0.8,2.6,1.3,3.9,1.8c2.2,0.8,4.2,1.6,5,3.2c1,2,0.3,4-0.3,5.5c-0.1,0.4-0.3,0.9-0.4,1.2
		c-0.4,1.7-1.7,4.2-3.8,5.9c-2.1,1.7-5.7,2.9-7.1,2.9c-0.6,0-2.1-0.1-3.6-0.2c-1.4-0.1-2.9-0.2-3.5-0.2c-1.5,0-4.8-2.6-6-4.2
		c-1.2-1.6-2.3-3.5-2.4-3.6l-0.1-0.1v-0.2c0-0.1,0-2.3,1.4-3.2c0.8-0.5,1.7-0.6,2.3-0.6c0.4,0,0.8,0,1.1,0.1c0.3,0,0.6,0,0.9,0
		c1.3,0,1.9,1,2.4,1.9c0.1,0.3,0.3,0.5,0.4,0.7c0.5,0.8,0.7,1.4,0.8,1.8c0.9,0.1,2.7,0.3,3.8,0.3c1.5,0,1.9,0,3-0.4
		c0.8-0.3,1.9-1.2,2.4-1.7c0.1-0.5,0.3-1.9,0.3-2.8c0-0.7-0.6-1.8-0.9-2.3c-1-0.4-5.9-2.3-6.9-2.7c-1.3-0.4-3.4-2.1-4.6-3.7
		c-1.2-1.5-2.3-2.7-2.3-2.7l-0.2-0.2v-3.6l2.5-4.2c0.4-0.5,2.6-2.9,3.8-3.3c1-0.3,3.6-0.9,6.4-0.9c0.7,0,1.4,0,2.1,0.1
		c0.3,0,0.5,0,0.6,0.1c0.2-0.1,0.4-0.1,0.5-0.1c1.3,0,3,0.8,5.4,2c2.3,1.2,2.7,2.5,3,3.9c0,0.1,0.1,0.3,0.1,0.5
		c0.3,1.4-0.1,2.5-0.5,3.5c-0.1,0.3-0.2,0.5-0.3,0.8c-0.4,1.2-0.8,2.5-2.1,3.8c-0.4,0.4-0.8,0.6-1.3,0.6c-0.5,0-1-0.3-1.5-0.5
		c-0.5-0.3-1-0.6-1.7-0.7c-0.8-0.2-1.3-0.5-1.4-1C453.2,23.4,453.8,22.9,454.2,22.6z"/>
</g>
</svg>
